# xmcd
#
# Track frame offsets: 
#        150
#        10335
#        21290
#        41010
#        55437
#        70552
#        89150
#        107275
#        121740
#        135517
#        150727
#
# Disc length: 2323 seconds
#
# Revision: 3
# Processed by: cddbd v1.5.2PL0 Copyright (c) Steve Scherf et al.
# Submitted via: ExactAudioCopy v0.95b4
#
DISCID=8909110b
DTITLE=Various Artist - Music from the All-American Highway
DYEAR=1995
DGENRE=Pop
TTITLE0=Route 66 Orchestra/Theme from Route 66
TTITLE1=Bobby Troup/Route 66
TTITLE2=Alan Rhody/The Mother Road
TTITLE3=Jason Eklund/What's Left of 66
TTITLE4=Kevin Welch/Willy Rogers Highway
TTITLE5=Mary Cutrufello/The Long Red Line
TTITLE6=Red Dirt Rangers/Used To Be
TTITLE7=Mad Cat Trio feat Cindy Cashdollar/2200 Miles
TTITLE8=Dusty Chaps/Don't Haul Bricks on 66
TTITLE9=Jimmy LaFave/Route 66 Revisited
TTITLE10=Charles Brown/Route 66
EXTD=
EXTT0=Route 66 Orchestra
EXTT1=Bobby Troup
EXTT2=Alan Rhody
EXTT3=Jason Eklund
EXTT4=Kevin Welch
EXTT5=Mary Cutrufello
EXTT6=The Red Dirt Rangers
EXTT7=The Mad Cat Trio featuring Cindy Cashdollar
EXTT8=The Dusty Chips
EXTT9=jimmy LaFave
EXTT10=Charles Brown
PLAYORDER=
